<svg width="203" height="35" viewBox="0 0 203 35" fill="none" xmlns="http://www.w3.org/2000/svg">
<path d="M0.880313 29V0.999998H3.32031L16.1203 22.84H14.8403L27.5203 0.999998H29.9603V29H27.1203V5.44H27.8003L16.1203 25.44H14.7203L2.96031 5.44H3.72031V29H0.880313ZM51.3234 29.24C49.2168 29.24 47.2568 28.8933 45.4434 28.2C43.6568 27.48 42.0968 26.48 40.7634 25.2C39.4568 23.8933 38.4301 22.3867 37.6834 20.68C36.9634 18.9467 36.6034 17.0533 36.6034 15C36.6034 12.9467 36.9634 11.0667 37.6834 9.36C38.4301 7.62666 39.4568 6.12 40.7634 4.84C42.0968 3.53333 43.6568 2.53333 45.4434 1.84C47.2301 1.12 49.1901 0.759999 51.3234 0.759999C53.4301 0.759999 55.3768 1.12 57.1634 1.84C58.9501 2.53333 60.4968 3.52 61.8034 4.8C63.1368 6.08 64.1634 7.58667 64.8834 9.32C65.6301 11.0533 66.0034 12.9467 66.0034 15C66.0034 17.0533 65.6301 18.9467 64.8834 20.68C64.1634 22.4133 63.1368 23.92 61.8034 25.2C60.4968 26.48 58.9501 27.48 57.1634 28.2C55.3768 28.8933 53.4301 29.24 51.3234 29.24ZM51.3234 26.6C53.0034 26.6 54.5501 26.32 55.9634 25.76C57.4034 25.1733 58.6434 24.36 59.6834 23.32C60.7501 22.2533 61.5768 21.0267 62.1634 19.64C62.7501 18.2267 63.0434 16.68 63.0434 15C63.0434 13.32 62.7501 11.7867 62.1634 10.4C61.5768 8.98667 60.7501 7.76 59.6834 6.72C58.6434 5.65333 57.4034 4.84 55.9634 4.28C54.5501 3.69333 53.0034 3.4 51.3234 3.4C49.6434 3.4 48.0834 3.69333 46.6434 4.28C45.2034 4.84 43.9501 5.65333 42.8834 6.72C41.8434 7.76 41.0168 8.98667 40.4034 10.4C39.8168 11.7867 39.5234 13.32 39.5234 15C39.5234 16.6533 39.8168 18.1867 40.4034 19.6C41.0168 21.0133 41.8434 22.2533 42.8834 23.32C43.9501 24.36 45.2034 25.1733 46.6434 25.76C48.0834 26.32 49.6434 26.6 51.3234 26.6ZM72.6381 29V0.999998H75.0781L94.3981 25.32H93.1181V0.999998H96.0381V29H93.5981L74.3181 4.68H75.5981V29H72.6381ZM105.177 29V0.999998H108.137V29H105.177ZM129.488 29.24C127.381 29.24 125.421 28.8933 123.608 28.2C121.821 27.48 120.261 26.48 118.928 25.2C117.621 23.8933 116.594 22.3867 115.848 20.68C115.128 18.9467 114.768 17.0533 114.768 15C114.768 12.9467 115.128 11.0667 115.848 9.36C116.594 7.62666 117.621 6.12 118.928 4.84C120.261 3.53333 121.821 2.53333 123.608 1.84C125.394 1.12 127.354 0.759999 129.488 0.759999C131.594 0.759999 133.541 1.12 135.328 1.84C137.114 2.53333 138.661 3.52 139.968 4.8C141.301 6.08 142.328 7.58667 143.048 9.32C143.794 11.0533 144.168 12.9467 144.168 15C144.168 17.0533 143.794 18.9467 143.048 20.68C142.328 22.4133 141.301 23.92 139.968 25.2C138.661 26.48 137.114 27.48 135.328 28.2C133.541 28.8933 131.594 29.24 129.488 29.24ZM138.648 34.56C137.794 34.56 136.968 34.4533 136.168 34.24C135.368 34.0267 134.554 33.68 133.728 33.2C132.928 32.7467 132.101 32.1467 131.248 31.4C130.394 30.6533 129.461 29.7467 128.448 28.68L131.688 27.88C132.514 28.8667 133.314 29.68 134.088 30.32C134.888 30.96 135.661 31.4267 136.408 31.72C137.181 32.04 137.941 32.2 138.688 32.2C140.768 32.2 142.541 31.3467 144.008 29.64L145.448 31.36C143.688 33.4933 141.421 34.56 138.648 34.56ZM129.488 26.6C131.168 26.6 132.714 26.32 134.128 25.76C135.568 25.1733 136.808 24.3467 137.848 23.28C138.914 22.2133 139.741 20.9867 140.328 19.6C140.914 18.1867 141.208 16.6533 141.208 15C141.208 13.32 140.914 11.7867 140.328 10.4C139.741 8.98667 138.914 7.76 137.848 6.72C136.808 5.65333 135.568 4.84 134.128 4.28C132.714 3.69333 131.168 3.4 129.488 3.4C127.808 3.4 126.248 3.69333 124.808 4.28C123.368 4.84 122.114 5.65333 121.048 6.72C120.008 7.76 119.181 8.98667 118.567 10.4C117.981 11.7867 117.688 13.32 117.688 15C117.688 16.6533 117.981 18.1867 118.567 19.6C119.181 20.9867 120.008 22.2133 121.048 23.28C122.114 24.3467 123.368 25.1733 124.808 25.76C126.248 26.32 127.808 26.6 129.488 26.6ZM162.082 29.24C158.509 29.24 155.696 28.2133 153.642 26.16C151.589 24.1067 150.562 21.0667 150.562 17.04V0.999998H153.522V16.92C153.522 20.2267 154.269 22.6667 155.762 24.24C157.256 25.8133 159.362 26.6 162.082 26.6C164.829 26.6 166.949 25.8133 168.442 24.24C169.936 22.6667 170.682 20.2267 170.682 16.92V0.999998H173.562V17.04C173.562 21.0667 172.536 24.1067 170.482 26.16C168.456 28.2133 165.656 29.24 162.082 29.24ZM185.122 13.52H199.922V16.04H185.122V13.52ZM185.442 26.44H202.282V29H182.482V0.999998H201.682V3.56H185.442V26.44Z" fill="#FFEFDF"/>
</svg>
