<svg width="191" height="31" viewBox="0 0 191 31" fill="none" xmlns="http://www.w3.org/2000/svg">
<path d="M36.2044 24.452V26H28.4644V6.344L19.6804 23.804H17.3044L8.55641 6.344V26H0.816406V24.452H4.30841V0.835998H10.9324L18.5284 16.64L26.1244 0.835998H32.7124V24.452H36.2044ZM66.4588 24.452V26H36.2188V24.452H44.4628C42.4948 23.324 40.9348 21.776 39.7828 19.808C38.6548 17.84 38.0908 15.644 38.0908 13.22C38.0908 9.524 39.3628 6.44 41.9068 3.968C44.4508 1.472 47.5948 0.223999 51.3388 0.223999C55.0828 0.223999 58.2268 1.472 60.7708 3.968C63.3148 6.44 64.5868 9.524 64.5868 13.22C64.5868 15.62 64.0108 17.816 62.8588 19.808C61.7308 21.8 60.1828 23.348 58.2148 24.452H66.4588ZM57.6388 6.776C55.9348 5 53.8348 4.112 51.3388 4.112C48.8428 4.112 46.7308 5 45.0028 6.776C43.2988 8.552 42.4468 10.712 42.4468 13.256C42.4468 15.776 43.2988 17.924 45.0028 19.7C46.7308 21.476 48.8428 22.364 51.3388 22.364C53.8348 22.364 55.9348 21.476 57.6388 19.7C59.3668 17.924 60.2308 15.776 60.2308 13.256C60.2308 10.712 59.3668 8.552 57.6388 6.776ZM69.9451 24.452V0.835998H74.1931L88.8091 19.628V0.835998H93.0571V24.452H96.5491V26H88.4491L74.1931 7.64V26H66.4531V24.452H69.9451ZM100.039 24.452V0.835998H104.287V24.452H107.779V26H96.5469V24.452H100.039ZM138.002 24.452V26H125.006V30.392H120.758V26H107.762V24.452H115.97C114.026 23.3 112.478 21.752 111.326 19.808C110.198 17.84 109.634 15.644 109.634 13.22C109.634 9.524 110.906 6.44 113.45 3.968C115.994 1.472 119.138 0.223999 122.882 0.223999C126.626 0.223999 129.77 1.472 132.314 3.968C134.858 6.44 136.13 9.524 136.13 13.22C136.13 15.62 135.554 17.816 134.402 19.808C133.274 21.776 131.726 23.324 129.758 24.452H138.002ZM120.758 18.08H125.006V22.112C126.998 21.632 128.618 20.576 129.866 18.944C131.138 17.288 131.774 15.296 131.774 12.968C131.774 10.616 130.91 8.552 129.182 6.776C127.478 5 125.378 4.112 122.882 4.112C120.386 4.112 118.274 5 116.546 6.776C114.842 8.552 113.99 10.616 113.99 12.968C113.99 15.296 114.614 17.288 115.862 18.944C117.134 20.576 118.766 21.632 120.758 22.112V18.08ZM165.644 24.452V26H137.996V24.452H145.448C142.592 22.46 141.164 19.304 141.164 14.984V0.835998H145.412V14.804C145.412 17.108 145.988 18.932 147.14 20.276C148.292 21.62 149.852 22.292 151.82 22.292C153.788 22.292 155.348 21.62 156.5 20.276C157.652 18.932 158.228 17.108 158.228 14.804V0.835998H162.476V14.984C162.476 19.328 161.036 22.484 158.156 24.452H165.644ZM169.121 24.452V0.835998H186.797V4.832H173.369V11.492H185.429V15.272H173.369V22.004H187.229V24.452H190.721V26H165.629V24.452H169.121Z" fill="#F1E3DD"/>
</svg>
